<svg width="380" height="220" viewBox="0 0 380 220" fill="none" xmlns="http://www.w3.org/2000/svg">
<rect x="1" y="1" width="378" height="218" rx="14" fill="#F5F5F5"/>
<path d="M46.6875 109.017V105.354C46.6875 104.358 46.5729 103.477 46.3438 102.711C46.1146 101.938 45.7852 101.286 45.3555 100.756C44.9186 100.226 44.3851 99.8249 43.7549 99.5527C43.1318 99.2734 42.4193 99.1338 41.6172 99.1338C40.8223 99.1338 40.1097 99.2734 39.4795 99.5527C38.8564 99.8249 38.3301 100.226 37.9004 100.756C37.4635 101.286 37.1305 101.938 36.9014 102.711C36.6722 103.477 36.5576 104.358 36.5576 105.354V109.017C36.5576 110.012 36.6722 110.896 36.9014 111.67C37.1305 112.436 37.4635 113.081 37.9004 113.604C38.3372 114.141 38.8708 114.545 39.501 114.817C40.1312 115.082 40.8438 115.215 41.6387 115.215C42.4408 115.215 43.1533 115.079 43.7764 114.807C44.3994 114.535 44.9258 114.133 45.3555 113.604C45.7852 113.081 46.1146 112.436 46.3438 111.67C46.5729 110.896 46.6875 110.012 46.6875 109.017ZM38.5557 108.619C38.5557 108.433 38.5557 108.25 38.5557 108.071C38.5557 107.892 38.5557 107.713 38.5557 107.534V104.913C38.5557 104.183 38.6273 103.542 38.7705 102.99C38.9209 102.432 39.1465 101.977 39.4473 101.626C39.6979 101.347 40.0023 101.135 40.3604 100.992C40.7256 100.842 41.1445 100.767 41.6172 100.767C42.0827 100.767 42.4909 100.835 42.8418 100.971C43.1999 101.107 43.5007 101.311 43.7441 101.583C43.9948 101.848 44.1917 102.181 44.335 102.582C44.4854 102.976 44.5892 103.431 44.6465 103.946L38.5557 108.619ZM44.6895 109.436C44.6895 110.202 44.6107 110.868 44.4531 111.434C44.3027 111.999 44.0628 112.458 43.7334 112.809C43.4899 113.066 43.1927 113.263 42.8418 113.399C42.4909 113.535 42.0898 113.604 41.6387 113.604C41.209 113.604 40.8223 113.543 40.4785 113.421C40.1348 113.292 39.8411 113.106 39.5977 112.862C39.3327 112.604 39.1178 112.279 38.9531 111.885C38.7884 111.484 38.6738 111.022 38.6094 110.499L44.6895 105.848C44.6895 106.048 44.6895 106.302 44.6895 106.61C44.6895 106.911 44.6895 107.115 44.6895 107.223V109.436ZM59.9004 109.017V105.354C59.9004 104.358 59.7858 103.477 59.5566 102.711C59.3275 101.938 58.998 101.286 58.5684 100.756C58.1315 100.226 57.598 99.8249 56.9678 99.5527C56.3447 99.2734 55.6322 99.1338 54.8301 99.1338C54.0352 99.1338 53.3226 99.2734 52.6924 99.5527C52.0693 99.8249 51.543 100.226 51.1133 100.756C50.6764 101.286 50.3434 101.938 50.1143 102.711C49.8851 103.477 49.7705 104.358 49.7705 105.354V109.017C49.7705 110.012 49.8851 110.896 50.1143 111.67C50.3434 112.436 50.6764 113.081 51.1133 113.604C51.5501 114.141 52.0837 114.545 52.7139 114.817C53.3441 115.082 54.0566 115.215 54.8516 115.215C55.6536 115.215 56.3662 115.079 56.9893 114.807C57.6123 114.535 58.1387 114.133 58.5684 113.604C58.998 113.081 59.3275 112.436 59.5566 111.67C59.7858 110.896 59.9004 110.012 59.9004 109.017ZM51.7686 108.619C51.7686 108.433 51.7686 108.25 51.7686 108.071C51.7686 107.892 51.7686 107.713 51.7686 107.534V104.913C51.7686 104.183 51.8402 103.542 51.9834 102.99C52.1338 102.432 52.3594 101.977 52.6602 101.626C52.9108 101.347 53.2152 101.135 53.5732 100.992C53.9385 100.842 54.3574 100.767 54.8301 100.767C55.2956 100.767 55.7038 100.835 56.0547 100.971C56.4128 101.107 56.7135 101.311 56.957 101.583C57.2077 101.848 57.4046 102.181 57.5479 102.582C57.6982 102.976 57.8021 103.431 57.8594 103.946L51.7686 108.619ZM57.9023 109.436C57.9023 110.202 57.8236 110.868 57.666 111.434C57.5156 111.999 57.2757 112.458 56.9463 112.809C56.7028 113.066 56.4056 113.263 56.0547 113.399C55.7038 113.535 55.3027 113.604 54.8516 113.604C54.4219 113.604 54.0352 113.543 53.6914 113.421C53.3477 113.292 53.054 113.106 52.8105 112.862C52.5456 112.604 52.3307 112.279 52.166 111.885C52.0013 111.484 51.8867 111.022 51.8223 110.499L57.9023 105.848C57.9023 106.048 57.9023 106.302 57.9023 106.61C57.9023 106.911 57.9023 107.115 57.9023 107.223V109.436ZM73.1133 109.017V105.354C73.1133 104.358 72.9987 103.477 72.7695 102.711C72.5404 101.938 72.2109 101.286 71.7812 100.756C71.3444 100.226 70.8109 99.8249 70.1807 99.5527C69.5576 99.2734 68.8451 99.1338 68.043 99.1338C67.248 99.1338 66.5355 99.2734 65.9053 99.5527C65.2822 99.8249 64.7559 100.226 64.3262 100.756C63.8893 101.286 63.5563 101.938 63.3271 102.711C63.098 103.477 62.9834 104.358 62.9834 105.354V109.017C62.9834 110.012 63.098 110.896 63.3271 111.67C63.5563 112.436 63.8893 113.081 64.3262 113.604C64.763 114.141 65.2965 114.545 65.9268 114.817C66.557 115.082 67.2695 115.215 68.0645 115.215C68.8665 115.215 69.5791 115.079 70.2021 114.807C70.8252 114.535 71.3516 114.133 71.7812 113.604C72.2109 113.081 72.5404 112.436 72.7695 111.67C72.9987 110.896 73.1133 110.012 73.1133 109.017ZM64.9814 108.619C64.9814 108.433 64.9814 108.25 64.9814 108.071C64.9814 107.892 64.9814 107.713 64.9814 107.534V104.913C64.9814 104.183 65.0531 103.542 65.1963 102.99C65.3467 102.432 65.5723 101.977 65.873 101.626C66.1237 101.347 66.4281 101.135 66.7861 100.992C67.1514 100.842 67.5703 100.767 68.043 100.767C68.5085 100.767 68.9167 100.835 69.2676 100.971C69.6257 101.107 69.9264 101.311 70.1699 101.583C70.4206 101.848 70.6175 102.181 70.7607 102.582C70.9111 102.976 71.015 103.431 71.0723 103.946L64.9814 108.619ZM71.1152 109.436C71.1152 110.202 71.0365 110.868 70.8789 111.434C70.7285 111.999 70.4886 112.458 70.1592 112.809C69.9157 113.066 69.6185 113.263 69.2676 113.399C68.9167 113.535 68.5156 113.604 68.0645 113.604C67.6348 113.604 67.248 113.543 66.9043 113.421C66.5605 113.292 66.2669 113.106 66.0234 112.862C65.7585 112.604 65.5436 112.279 65.3789 111.885C65.2142 111.484 65.0996 111.022 65.0352 110.499L71.1152 105.848C71.1152 106.048 71.1152 106.302 71.1152 106.61C71.1152 106.911 71.1152 107.115 71.1152 107.223V109.436ZM86.3262 109.017V105.354C86.3262 104.358 86.2116 103.477 85.9824 102.711C85.7533 101.938 85.4238 101.286 84.9941 100.756C84.5573 100.226 84.0238 99.8249 83.3936 99.5527C82.7705 99.2734 82.0579 99.1338 81.2559 99.1338C80.4609 99.1338 79.7484 99.2734 79.1182 99.5527C78.4951 99.8249 77.9688 100.226 77.5391 100.756C77.1022 101.286 76.7692 101.938 76.54 102.711C76.3109 103.477 76.1963 104.358 76.1963 105.354V109.017C76.1963 110.012 76.3109 110.896 76.54 111.67C76.7692 112.436 77.1022 113.081 77.5391 113.604C77.9759 114.141 78.5094 114.545 79.1396 114.817C79.7699 115.082 80.4824 115.215 81.2773 115.215C82.0794 115.215 82.792 115.079 83.415 114.807C84.0381 114.535 84.5645 114.133 84.9941 113.604C85.4238 113.081 85.7533 112.436 85.9824 111.67C86.2116 110.896 86.3262 110.012 86.3262 109.017ZM78.1943 108.619C78.1943 108.433 78.1943 108.25 78.1943 108.071C78.1943 107.892 78.1943 107.713 78.1943 107.534V104.913C78.1943 104.183 78.266 103.542 78.4092 102.99C78.5596 102.432 78.7852 101.977 79.0859 101.626C79.3366 101.347 79.641 101.135 79.999 100.992C80.3643 100.842 80.7832 100.767 81.2559 100.767C81.7214 100.767 82.1296 100.835 82.4805 100.971C82.8385 101.107 83.1393 101.311 83.3828 101.583C83.6335 101.848 83.8304 102.181 83.9736 102.582C84.124 102.976 84.2279 103.431 84.2852 103.946L78.1943 108.619ZM84.3281 109.436C84.3281 110.202 84.2493 110.868 84.0918 111.434C83.9414 111.999 83.7015 112.458 83.3721 112.809C83.1286 113.066 82.8314 113.263 82.4805 113.399C82.1296 113.535 81.7285 113.604 81.2773 113.604C80.8477 113.604 80.4609 113.543 80.1172 113.421C79.7734 113.292 79.4798 113.106 79.2363 112.862C78.9714 112.604 78.7565 112.279 78.5918 111.885C78.4271 111.484 78.3125 111.022 78.248 110.499L84.3281 105.848C84.3281 106.048 84.3281 106.302 84.3281 106.61C84.3281 106.911 84.3281 107.115 84.3281 107.223V109.436Z" fill="#516778"/>
<path d="M132.354 109.017V105.354C132.354 104.358 132.239 103.477 132.01 102.711C131.781 101.938 131.451 101.286 131.021 100.756C130.585 100.226 130.051 99.8249 129.421 99.5527C128.798 99.2734 128.085 99.1338 127.283 99.1338C126.488 99.1338 125.776 99.2734 125.146 99.5527C124.522 99.8249 123.996 100.226 123.566 100.756C123.13 101.286 122.797 101.938 122.567 102.711C122.338 103.477 122.224 104.358 122.224 105.354V109.017C122.224 110.012 122.338 110.896 122.567 111.67C122.797 112.436 123.13 113.081 123.566 113.604C124.003 114.141 124.537 114.545 125.167 114.817C125.797 115.082 126.51 115.215 127.305 115.215C128.107 115.215 128.819 115.079 129.442 114.807C130.065 114.535 130.592 114.133 131.021 113.604C131.451 113.081 131.781 112.436 132.01 111.67C132.239 110.896 132.354 110.012 132.354 109.017ZM124.222 108.619C124.222 108.433 124.222 108.25 124.222 108.071C124.222 107.892 124.222 107.713 124.222 107.534V104.913C124.222 104.183 124.293 103.542 124.437 102.99C124.587 102.432 124.812 101.977 125.113 101.626C125.364 101.347 125.668 101.135 126.026 100.992C126.392 100.842 126.811 100.767 127.283 100.767C127.749 100.767 128.157 100.835 128.508 100.971C128.866 101.107 129.167 101.311 129.41 101.583C129.661 101.848 129.858 102.181 130.001 102.582C130.151 102.976 130.255 103.431 130.312 103.946L124.222 108.619ZM130.355 109.436C130.355 110.202 130.277 110.868 130.119 111.434C129.969 111.999 129.729 112.458 129.399 112.809C129.156 113.066 128.859 113.263 128.508 113.399C128.157 113.535 127.756 113.604 127.305 113.604C126.875 113.604 126.488 113.543 126.145 113.421C125.801 113.292 125.507 113.106 125.264 112.862C124.999 112.604 124.784 112.279 124.619 111.885C124.454 111.484 124.34 111.022 124.275 110.499L130.355 105.848C130.355 106.048 130.355 106.302 130.355 106.61C130.355 106.911 130.355 107.115 130.355 107.223V109.436ZM145.566 109.017V105.354C145.566 104.358 145.452 103.477 145.223 102.711C144.993 101.938 144.664 101.286 144.234 100.756C143.798 100.226 143.264 99.8249 142.634 99.5527C142.011 99.2734 141.298 99.1338 140.496 99.1338C139.701 99.1338 138.989 99.2734 138.358 99.5527C137.735 99.8249 137.209 100.226 136.779 100.756C136.342 101.286 136.009 101.938 135.78 102.711C135.551 103.477 135.437 104.358 135.437 105.354V109.017C135.437 110.012 135.551 110.896 135.78 111.67C136.009 112.436 136.342 113.081 136.779 113.604C137.216 114.141 137.75 114.545 138.38 114.817C139.01 115.082 139.723 115.215 140.518 115.215C141.32 115.215 142.032 115.079 142.655 114.807C143.278 114.535 143.805 114.133 144.234 113.604C144.664 113.081 144.993 112.436 145.223 111.67C145.452 110.896 145.566 110.012 145.566 109.017ZM137.435 108.619C137.435 108.433 137.435 108.25 137.435 108.071C137.435 107.892 137.435 107.713 137.435 107.534V104.913C137.435 104.183 137.506 103.542 137.649 102.99C137.8 102.432 138.025 101.977 138.326 101.626C138.577 101.347 138.881 101.135 139.239 100.992C139.604 100.842 140.023 100.767 140.496 100.767C140.962 100.767 141.37 100.835 141.721 100.971C142.079 101.107 142.38 101.311 142.623 101.583C142.874 101.848 143.071 102.181 143.214 102.582C143.364 102.976 143.468 103.431 143.525 103.946L137.435 108.619ZM143.568 109.436C143.568 110.202 143.49 110.868 143.332 111.434C143.182 111.999 142.942 112.458 142.612 112.809C142.369 113.066 142.072 113.263 141.721 113.399C141.37 113.535 140.969 113.604 140.518 113.604C140.088 113.604 139.701 113.543 139.357 113.421C139.014 113.292 138.72 113.106 138.477 112.862C138.212 112.604 137.997 112.279 137.832 111.885C137.667 111.484 137.553 111.022 137.488 110.499L143.568 105.848C143.568 106.048 143.568 106.302 143.568 106.61C143.568 106.911 143.568 107.115 143.568 107.223V109.436ZM158.779 109.017V105.354C158.779 104.358 158.665 103.477 158.436 102.711C158.206 101.938 157.877 101.286 157.447 100.756C157.01 100.226 156.477 99.8249 155.847 99.5527C155.224 99.2734 154.511 99.1338 153.709 99.1338C152.914 99.1338 152.201 99.2734 151.571 99.5527C150.948 99.8249 150.422 100.226 149.992 100.756C149.555 101.286 149.222 101.938 148.993 102.711C148.764 103.477 148.649 104.358 148.649 105.354V109.017C148.649 110.012 148.764 110.896 148.993 111.67C149.222 112.436 149.555 113.081 149.992 113.604C150.429 114.141 150.963 114.545 151.593 114.817C152.223 115.082 152.936 115.215 153.73 115.215C154.533 115.215 155.245 115.079 155.868 114.807C156.491 114.535 157.018 114.133 157.447 113.604C157.877 113.081 158.206 112.436 158.436 111.67C158.665 110.896 158.779 110.012 158.779 109.017ZM150.647 108.619C150.647 108.433 150.647 108.25 150.647 108.071C150.647 107.892 150.647 107.713 150.647 107.534V104.913C150.647 104.183 150.719 103.542 150.862 102.99C151.013 102.432 151.238 101.977 151.539 101.626C151.79 101.347 152.094 101.135 152.452 100.992C152.817 100.842 153.236 100.767 153.709 100.767C154.174 100.767 154.583 100.835 154.934 100.971C155.292 101.107 155.592 101.311 155.836 101.583C156.087 101.848 156.284 102.181 156.427 102.582C156.577 102.976 156.681 103.431 156.738 103.946L150.647 108.619ZM156.781 109.436C156.781 110.202 156.702 110.868 156.545 111.434C156.395 111.999 156.155 112.458 155.825 112.809C155.582 113.066 155.285 113.263 154.934 113.399C154.583 113.535 154.182 113.604 153.73 113.604C153.301 113.604 152.914 113.543 152.57 113.421C152.227 113.292 151.933 113.106 151.689 112.862C151.424 112.604 151.21 112.279 151.045 111.885C150.88 111.484 150.766 111.022 150.701 110.499L156.781 105.848C156.781 106.048 156.781 106.302 156.781 106.61C156.781 106.911 156.781 107.115 156.781 107.223V109.436ZM171.992 109.017V105.354C171.992 104.358 171.878 103.477 171.648 102.711C171.419 101.938 171.09 101.286 170.66 100.756C170.223 100.226 169.69 99.8249 169.06 99.5527C168.437 99.2734 167.724 99.1338 166.922 99.1338C166.127 99.1338 165.414 99.2734 164.784 99.5527C164.161 99.8249 163.635 100.226 163.205 100.756C162.768 101.286 162.435 101.938 162.206 102.711C161.977 103.477 161.862 104.358 161.862 105.354V109.017C161.862 110.012 161.977 110.896 162.206 111.67C162.435 112.436 162.768 113.081 163.205 113.604C163.642 114.141 164.175 114.545 164.806 114.817C165.436 115.082 166.148 115.215 166.943 115.215C167.745 115.215 168.458 115.079 169.081 114.807C169.704 114.535 170.23 114.133 170.66 113.604C171.09 113.081 171.419 112.436 171.648 111.67C171.878 110.896 171.992 110.012 171.992 109.017ZM163.86 108.619C163.86 108.433 163.86 108.25 163.86 108.071C163.86 107.892 163.86 107.713 163.86 107.534V104.913C163.86 104.183 163.932 103.542 164.075 102.99C164.226 102.432 164.451 101.977 164.752 101.626C165.003 101.347 165.307 101.135 165.665 100.992C166.03 100.842 166.449 100.767 166.922 100.767C167.387 100.767 167.796 100.835 168.146 100.971C168.505 101.107 168.805 101.311 169.049 101.583C169.299 101.848 169.496 102.181 169.64 102.582C169.79 102.976 169.894 103.431 169.951 103.946L163.86 108.619ZM169.994 109.436C169.994 110.202 169.915 110.868 169.758 111.434C169.607 111.999 169.368 112.458 169.038 112.809C168.795 113.066 168.497 113.263 168.146 113.399C167.796 113.535 167.395 113.604 166.943 113.604C166.514 113.604 166.127 113.543 165.783 113.421C165.439 113.292 165.146 113.106 164.902 112.862C164.637 112.604 164.423 112.279 164.258 111.885C164.093 111.484 163.979 111.022 163.914 110.499L169.994 105.848C169.994 106.048 169.994 106.302 169.994 106.61C169.994 106.911 169.994 107.115 169.994 107.223V109.436Z" fill="#516778"/>
<path d="M218.021 109.017V105.354C218.021 104.358 217.907 103.477 217.678 102.711C217.449 101.938 217.119 101.286 216.689 100.756C216.253 100.226 215.719 99.8249 215.089 99.5527C214.466 99.2734 213.753 99.1338 212.951 99.1338C212.156 99.1338 211.444 99.2734 210.813 99.5527C210.19 99.8249 209.664 100.226 209.234 100.756C208.798 101.286 208.465 101.938 208.235 102.711C208.006 103.477 207.892 104.358 207.892 105.354V109.017C207.892 110.012 208.006 110.896 208.235 111.67C208.465 112.436 208.798 113.081 209.234 113.604C209.671 114.141 210.205 114.545 210.835 114.817C211.465 115.082 212.178 115.215 212.973 115.215C213.775 115.215 214.487 115.079 215.11 114.807C215.733 114.535 216.26 114.133 216.689 113.604C217.119 113.081 217.449 112.436 217.678 111.67C217.907 110.896 218.021 110.012 218.021 109.017ZM209.89 108.619C209.89 108.433 209.89 108.25 209.89 108.071C209.89 107.892 209.89 107.713 209.89 107.534V104.913C209.89 104.183 209.961 103.542 210.104 102.99C210.255 102.432 210.48 101.977 210.781 101.626C211.032 101.347 211.336 101.135 211.694 100.992C212.06 100.842 212.479 100.767 212.951 100.767C213.417 100.767 213.825 100.835 214.176 100.971C214.534 101.107 214.835 101.311 215.078 101.583C215.329 101.848 215.526 102.181 215.669 102.582C215.819 102.976 215.923 103.431 215.98 103.946L209.89 108.619ZM216.023 109.436C216.023 110.202 215.945 110.868 215.787 111.434C215.637 111.999 215.397 112.458 215.067 112.809C214.824 113.066 214.527 113.263 214.176 113.399C213.825 113.535 213.424 113.604 212.973 113.604C212.543 113.604 212.156 113.543 211.812 113.421C211.469 113.292 211.175 113.106 210.932 112.862C210.667 112.604 210.452 112.279 210.287 111.885C210.122 111.484 210.008 111.022 209.943 110.499L216.023 105.848C216.023 106.048 216.023 106.302 216.023 106.61C216.023 106.911 216.023 107.115 216.023 107.223V109.436ZM231.234 109.017V105.354C231.234 104.358 231.12 103.477 230.891 102.711C230.661 101.938 230.332 101.286 229.902 100.756C229.465 100.226 228.932 99.8249 228.302 99.5527C227.679 99.2734 226.966 99.1338 226.164 99.1338C225.369 99.1338 224.657 99.2734 224.026 99.5527C223.403 99.8249 222.877 100.226 222.447 100.756C222.01 101.286 221.677 101.938 221.448 102.711C221.219 103.477 221.104 104.358 221.104 105.354V109.017C221.104 110.012 221.219 110.896 221.448 111.67C221.677 112.436 222.01 113.081 222.447 113.604C222.884 114.141 223.418 114.545 224.048 114.817C224.678 115.082 225.391 115.215 226.186 115.215C226.988 115.215 227.7 115.079 228.323 114.807C228.946 114.535 229.473 114.133 229.902 113.604C230.332 113.081 230.661 112.436 230.891 111.67C231.12 110.896 231.234 110.012 231.234 109.017ZM223.103 108.619C223.103 108.433 223.103 108.25 223.103 108.071C223.103 107.892 223.103 107.713 223.103 107.534V104.913C223.103 104.183 223.174 103.542 223.317 102.99C223.468 102.432 223.693 101.977 223.994 101.626C224.245 101.347 224.549 101.135 224.907 100.992C225.272 100.842 225.691 100.767 226.164 100.767C226.63 100.767 227.038 100.835 227.389 100.971C227.747 101.107 228.048 101.311 228.291 101.583C228.542 101.848 228.739 102.181 228.882 102.582C229.032 102.976 229.136 103.431 229.193 103.946L223.103 108.619ZM229.236 109.436C229.236 110.202 229.158 110.868 229 111.434C228.85 111.999 228.61 112.458 228.28 112.809C228.037 113.066 227.74 113.263 227.389 113.399C227.038 113.535 226.637 113.604 226.186 113.604C225.756 113.604 225.369 113.543 225.025 113.421C224.682 113.292 224.388 113.106 224.145 112.862C223.88 112.604 223.665 112.279 223.5 111.885C223.335 111.484 223.221 111.022 223.156 110.499L229.236 105.848C229.236 106.048 229.236 106.302 229.236 106.61C229.236 106.911 229.236 107.115 229.236 107.223V109.436ZM244.447 109.017V105.354C244.447 104.358 244.333 103.477 244.104 102.711C243.874 101.938 243.545 101.286 243.115 100.756C242.678 100.226 242.145 99.8249 241.515 99.5527C240.892 99.2734 240.179 99.1338 239.377 99.1338C238.582 99.1338 237.869 99.2734 237.239 99.5527C236.616 99.8249 236.09 100.226 235.66 100.756C235.223 101.286 234.89 101.938 234.661 102.711C234.432 103.477 234.317 104.358 234.317 105.354V109.017C234.317 110.012 234.432 110.896 234.661 111.67C234.89 112.436 235.223 113.081 235.66 113.604C236.097 114.141 236.631 114.545 237.261 114.817C237.891 115.082 238.604 115.215 239.398 115.215C240.201 115.215 240.913 115.079 241.536 114.807C242.159 114.535 242.686 114.133 243.115 113.604C243.545 113.081 243.874 112.436 244.104 111.67C244.333 110.896 244.447 110.012 244.447 109.017ZM236.315 108.619C236.315 108.433 236.315 108.25 236.315 108.071C236.315 107.892 236.315 107.713 236.315 107.534V104.913C236.315 104.183 236.387 103.542 236.53 102.99C236.681 102.432 236.906 101.977 237.207 101.626C237.458 101.347 237.762 101.135 238.12 100.992C238.485 100.842 238.904 100.767 239.377 100.767C239.842 100.767 240.251 100.835 240.602 100.971C240.96 101.107 241.26 101.311 241.504 101.583C241.755 101.848 241.951 102.181 242.095 102.582C242.245 102.976 242.349 103.431 242.406 103.946L236.315 108.619ZM242.449 109.436C242.449 110.202 242.37 110.868 242.213 111.434C242.062 111.999 241.823 112.458 241.493 112.809C241.25 113.066 240.952 113.263 240.602 113.399C240.251 113.535 239.85 113.604 239.398 113.604C238.969 113.604 238.582 113.543 238.238 113.421C237.895 113.292 237.601 113.106 237.357 112.862C237.092 112.604 236.878 112.279 236.713 111.885C236.548 111.484 236.434 111.022 236.369 110.499L242.449 105.848C242.449 106.048 242.449 106.302 242.449 106.61C242.449 106.911 242.449 107.115 242.449 107.223V109.436ZM257.66 109.017V105.354C257.66 104.358 257.546 103.477 257.316 102.711C257.087 101.938 256.758 101.286 256.328 100.756C255.891 100.226 255.358 99.8249 254.728 99.5527C254.104 99.2734 253.392 99.1338 252.59 99.1338C251.795 99.1338 251.082 99.2734 250.452 99.5527C249.829 99.8249 249.303 100.226 248.873 100.756C248.436 101.286 248.103 101.938 247.874 102.711C247.645 103.477 247.53 104.358 247.53 105.354V109.017C247.53 110.012 247.645 110.896 247.874 111.67C248.103 112.436 248.436 113.081 248.873 113.604C249.31 114.141 249.843 114.545 250.474 114.817C251.104 115.082 251.816 115.215 252.611 115.215C253.413 115.215 254.126 115.079 254.749 114.807C255.372 114.535 255.898 114.133 256.328 113.604C256.758 113.081 257.087 112.436 257.316 111.67C257.546 110.896 257.66 110.012 257.66 109.017ZM249.528 108.619C249.528 108.433 249.528 108.25 249.528 108.071C249.528 107.892 249.528 107.713 249.528 107.534V104.913C249.528 104.183 249.6 103.542 249.743 102.99C249.894 102.432 250.119 101.977 250.42 101.626C250.671 101.347 250.975 101.135 251.333 100.992C251.698 100.842 252.117 100.767 252.59 100.767C253.055 100.767 253.464 100.835 253.814 100.971C254.173 101.107 254.473 101.311 254.717 101.583C254.967 101.848 255.164 102.181 255.308 102.582C255.458 102.976 255.562 103.431 255.619 103.946L249.528 108.619ZM255.662 109.436C255.662 110.202 255.583 110.868 255.426 111.434C255.275 111.999 255.035 112.458 254.706 112.809C254.463 113.066 254.165 113.263 253.814 113.399C253.464 113.535 253.062 113.604 252.611 113.604C252.182 113.604 251.795 113.543 251.451 113.421C251.107 113.292 250.814 113.106 250.57 112.862C250.305 112.604 250.09 112.279 249.926 111.885C249.761 111.484 249.646 111.022 249.582 110.499L255.662 105.848C255.662 106.048 255.662 106.302 255.662 106.61C255.662 106.911 255.662 107.115 255.662 107.223V109.436Z" fill="#516778"/>
<path d="M303.688 109.017V105.354C303.688 104.358 303.573 103.477 303.344 102.711C303.115 101.938 302.785 101.286 302.355 100.756C301.919 100.226 301.385 99.8249 300.755 99.5527C300.132 99.2734 299.419 99.1338 298.617 99.1338C297.822 99.1338 297.11 99.2734 296.479 99.5527C295.856 99.8249 295.33 100.226 294.9 100.756C294.464 101.286 294.131 101.938 293.901 102.711C293.672 103.477 293.558 104.358 293.558 105.354V109.017C293.558 110.012 293.672 110.896 293.901 111.67C294.131 112.436 294.464 113.081 294.9 113.604C295.337 114.141 295.871 114.545 296.501 114.817C297.131 115.082 297.844 115.215 298.639 115.215C299.441 115.215 300.153 115.079 300.776 114.807C301.399 114.535 301.926 114.133 302.355 113.604C302.785 113.081 303.115 112.436 303.344 111.67C303.573 110.896 303.688 110.012 303.688 109.017ZM295.556 108.619C295.556 108.433 295.556 108.25 295.556 108.071C295.556 107.892 295.556 107.713 295.556 107.534V104.913C295.556 104.183 295.627 103.542 295.771 102.99C295.921 102.432 296.146 101.977 296.447 101.626C296.698 101.347 297.002 101.135 297.36 100.992C297.726 100.842 298.145 100.767 298.617 100.767C299.083 100.767 299.491 100.835 299.842 100.971C300.2 101.107 300.501 101.311 300.744 101.583C300.995 101.848 301.192 102.181 301.335 102.582C301.485 102.976 301.589 103.431 301.646 103.946L295.556 108.619ZM301.689 109.436C301.689 110.202 301.611 110.868 301.453 111.434C301.303 111.999 301.063 112.458 300.733 112.809C300.49 113.066 300.193 113.263 299.842 113.399C299.491 113.535 299.09 113.604 298.639 113.604C298.209 113.604 297.822 113.543 297.479 113.421C297.135 113.292 296.841 113.106 296.598 112.862C296.333 112.604 296.118 112.279 295.953 111.885C295.788 111.484 295.674 111.022 295.609 110.499L301.689 105.848C301.689 106.048 301.689 106.302 301.689 106.61C301.689 106.911 301.689 107.115 301.689 107.223V109.436ZM316.9 109.017V105.354C316.9 104.358 316.786 103.477 316.557 102.711C316.327 101.938 315.998 101.286 315.568 100.756C315.132 100.226 314.598 99.8249 313.968 99.5527C313.345 99.2734 312.632 99.1338 311.83 99.1338C311.035 99.1338 310.323 99.2734 309.692 99.5527C309.069 99.8249 308.543 100.226 308.113 100.756C307.676 101.286 307.343 101.938 307.114 102.711C306.885 103.477 306.771 104.358 306.771 105.354V109.017C306.771 110.012 306.885 110.896 307.114 111.67C307.343 112.436 307.676 113.081 308.113 113.604C308.55 114.141 309.084 114.545 309.714 114.817C310.344 115.082 311.057 115.215 311.852 115.215C312.654 115.215 313.366 115.079 313.989 114.807C314.612 114.535 315.139 114.133 315.568 113.604C315.998 113.081 316.327 112.436 316.557 111.67C316.786 110.896 316.9 110.012 316.9 109.017ZM308.769 108.619C308.769 108.433 308.769 108.25 308.769 108.071C308.769 107.892 308.769 107.713 308.769 107.534V104.913C308.769 104.183 308.84 103.542 308.983 102.99C309.134 102.432 309.359 101.977 309.66 101.626C309.911 101.347 310.215 101.135 310.573 100.992C310.938 100.842 311.357 100.767 311.83 100.767C312.296 100.767 312.704 100.835 313.055 100.971C313.413 101.107 313.714 101.311 313.957 101.583C314.208 101.848 314.405 102.181 314.548 102.582C314.698 102.976 314.802 103.431 314.859 103.946L308.769 108.619ZM314.902 109.436C314.902 110.202 314.824 110.868 314.666 111.434C314.516 111.999 314.276 112.458 313.946 112.809C313.703 113.066 313.406 113.263 313.055 113.399C312.704 113.535 312.303 113.604 311.852 113.604C311.422 113.604 311.035 113.543 310.691 113.421C310.348 113.292 310.054 113.106 309.811 112.862C309.546 112.604 309.331 112.279 309.166 111.885C309.001 111.484 308.887 111.022 308.822 110.499L314.902 105.848C314.902 106.048 314.902 106.302 314.902 106.61C314.902 106.911 314.902 107.115 314.902 107.223V109.436ZM330.113 109.017V105.354C330.113 104.358 329.999 103.477 329.77 102.711C329.54 101.938 329.211 101.286 328.781 100.756C328.344 100.226 327.811 99.8249 327.181 99.5527C326.558 99.2734 325.845 99.1338 325.043 99.1338C324.248 99.1338 323.535 99.2734 322.905 99.5527C322.282 99.8249 321.756 100.226 321.326 100.756C320.889 101.286 320.556 101.938 320.327 102.711C320.098 103.477 319.983 104.358 319.983 105.354V109.017C319.983 110.012 320.098 110.896 320.327 111.67C320.556 112.436 320.889 113.081 321.326 113.604C321.763 114.141 322.297 114.545 322.927 114.817C323.557 115.082 324.27 115.215 325.064 115.215C325.867 115.215 326.579 115.079 327.202 114.807C327.825 114.535 328.352 114.133 328.781 113.604C329.211 113.081 329.54 112.436 329.77 111.67C329.999 110.896 330.113 110.012 330.113 109.017ZM321.981 108.619C321.981 108.433 321.981 108.25 321.981 108.071C321.981 107.892 321.981 107.713 321.981 107.534V104.913C321.981 104.183 322.053 103.542 322.196 102.99C322.347 102.432 322.572 101.977 322.873 101.626C323.124 101.347 323.428 101.135 323.786 100.992C324.151 100.842 324.57 100.767 325.043 100.767C325.508 100.767 325.917 100.835 326.268 100.971C326.626 101.107 326.926 101.311 327.17 101.583C327.421 101.848 327.618 102.181 327.761 102.582C327.911 102.976 328.015 103.431 328.072 103.946L321.981 108.619ZM328.115 109.436C328.115 110.202 328.036 110.868 327.879 111.434C327.729 111.999 327.489 112.458 327.159 112.809C326.916 113.066 326.618 113.263 326.268 113.399C325.917 113.535 325.516 113.604 325.064 113.604C324.635 113.604 324.248 113.543 323.904 113.421C323.561 113.292 323.267 113.106 323.023 112.862C322.758 112.604 322.544 112.279 322.379 111.885C322.214 111.484 322.1 111.022 322.035 110.499L328.115 105.848C328.115 106.048 328.115 106.302 328.115 106.61C328.115 106.911 328.115 107.115 328.115 107.223V109.436ZM343.326 109.017V105.354C343.326 104.358 343.212 103.477 342.982 102.711C342.753 101.938 342.424 101.286 341.994 100.756C341.557 100.226 341.024 99.8249 340.394 99.5527C339.771 99.2734 339.058 99.1338 338.256 99.1338C337.461 99.1338 336.748 99.2734 336.118 99.5527C335.495 99.8249 334.969 100.226 334.539 100.756C334.102 101.286 333.769 101.938 333.54 102.711C333.311 103.477 333.196 104.358 333.196 105.354V109.017C333.196 110.012 333.311 110.896 333.54 111.67C333.769 112.436 334.102 113.081 334.539 113.604C334.976 114.141 335.509 114.545 336.14 114.817C336.77 115.082 337.482 115.215 338.277 115.215C339.079 115.215 339.792 115.079 340.415 114.807C341.038 114.535 341.564 114.133 341.994 113.604C342.424 113.081 342.753 112.436 342.982 111.67C343.212 110.896 343.326 110.012 343.326 109.017ZM335.194 108.619C335.194 108.433 335.194 108.25 335.194 108.071C335.194 107.892 335.194 107.713 335.194 107.534V104.913C335.194 104.183 335.266 103.542 335.409 102.99C335.56 102.432 335.785 101.977 336.086 101.626C336.337 101.347 336.641 101.135 336.999 100.992C337.364 100.842 337.783 100.767 338.256 100.767C338.721 100.767 339.13 100.835 339.48 100.971C339.839 101.107 340.139 101.311 340.383 101.583C340.633 101.848 340.83 102.181 340.974 102.582C341.124 102.976 341.228 103.431 341.285 103.946L335.194 108.619ZM341.328 109.436C341.328 110.202 341.249 110.868 341.092 111.434C340.941 111.999 340.701 112.458 340.372 112.809C340.129 113.066 339.831 113.263 339.48 113.399C339.13 113.535 338.729 113.604 338.277 113.604C337.848 113.604 337.461 113.543 337.117 113.421C336.773 113.292 336.48 113.106 336.236 112.862C335.971 112.604 335.757 112.279 335.592 111.885C335.427 111.484 335.312 111.022 335.248 110.499L341.328 105.848C341.328 106.048 341.328 106.302 341.328 106.61C341.328 106.911 341.328 107.115 341.328 107.223V109.436Z" fill="#516778"/>
<path d="M45.1797 147.625V159H43.2188L38.1172 150.852V159H36.1562V147.625H38.1172L43.2344 155.789V147.625H45.1797ZM52.0938 157.305V153.273C52.0938 152.971 52.0391 152.711 51.9297 152.492C51.8203 152.273 51.6536 152.104 51.4297 151.984C51.2109 151.865 50.9349 151.805 50.6016 151.805C50.2943 151.805 50.0286 151.857 49.8047 151.961C49.5807 152.065 49.4062 152.206 49.2812 152.383C49.1562 152.56 49.0938 152.76 49.0938 152.984H47.2188C47.2188 152.651 47.2995 152.328 47.4609 152.016C47.6224 151.703 47.8568 151.424 48.1641 151.18C48.4714 150.935 48.8385 150.742 49.2656 150.602C49.6927 150.461 50.1719 150.391 50.7031 150.391C51.3385 150.391 51.901 150.497 52.3906 150.711C52.8854 150.924 53.2734 151.247 53.5547 151.68C53.8411 152.107 53.9844 152.643 53.9844 153.289V157.047C53.9844 157.432 54.0104 157.779 54.0625 158.086C54.1198 158.388 54.2005 158.651 54.3047 158.875V159H52.375C52.2865 158.797 52.2161 158.539 52.1641 158.227C52.1172 157.909 52.0938 157.602 52.0938 157.305ZM52.3672 153.859L52.3828 155.023H51.0312C50.6823 155.023 50.375 155.057 50.1094 155.125C49.8438 155.188 49.6224 155.281 49.4453 155.406C49.2682 155.531 49.1354 155.682 49.0469 155.859C48.9583 156.036 48.9141 156.237 48.9141 156.461C48.9141 156.685 48.9661 156.891 49.0703 157.078C49.1745 157.26 49.3255 157.404 49.5234 157.508C49.7266 157.612 49.9714 157.664 50.2578 157.664C50.6432 157.664 50.9792 157.586 51.2656 157.43C51.5573 157.268 51.7865 157.073 51.9531 156.844C52.1198 156.609 52.2083 156.388 52.2188 156.18L52.8281 157.016C52.7656 157.229 52.6589 157.458 52.5078 157.703C52.3568 157.948 52.1589 158.182 51.9141 158.406C51.6745 158.625 51.3854 158.805 51.0469 158.945C50.7135 159.086 50.3281 159.156 49.8906 159.156C49.3385 159.156 48.8464 159.047 48.4141 158.828C47.9818 158.604 47.6432 158.305 47.3984 157.93C47.1536 157.549 47.0312 157.12 47.0312 156.641C47.0312 156.193 47.1146 155.797 47.2812 155.453C47.4531 155.104 47.7031 154.812 48.0312 154.578C48.3646 154.344 48.7708 154.167 49.25 154.047C49.7292 153.922 50.276 153.859 50.8906 153.859H52.3672ZM57.8359 152.266V159H55.9531V150.547H57.7266L57.8359 152.266ZM57.5312 154.461L56.8906 154.453C56.8906 153.87 56.9635 153.331 57.1094 152.836C57.2552 152.341 57.4688 151.911 57.75 151.547C58.0312 151.177 58.3802 150.893 58.7969 150.695C59.2188 150.492 59.7057 150.391 60.2578 150.391C60.6432 150.391 60.9948 150.448 61.3125 150.562C61.6354 150.672 61.9141 150.846 62.1484 151.086C62.388 151.326 62.5703 151.633 62.6953 152.008C62.8255 152.383 62.8906 152.836 62.8906 153.367V159H61.0078V153.531C61.0078 153.12 60.9453 152.797 60.8203 152.562C60.7005 152.328 60.526 152.161 60.2969 152.062C60.0729 151.958 59.8047 151.906 59.4922 151.906C59.138 151.906 58.8359 151.974 58.5859 152.109C58.3411 152.245 58.1406 152.43 57.9844 152.664C57.8281 152.898 57.7135 153.169 57.6406 153.477C57.5677 153.784 57.5312 154.112 57.5312 154.461ZM62.7734 153.961L61.8906 154.156C61.8906 153.646 61.9609 153.164 62.1016 152.711C62.2474 152.253 62.4583 151.852 62.7344 151.508C63.0156 151.159 63.362 150.885 63.7734 150.688C64.1849 150.49 64.6562 150.391 65.1875 150.391C65.6198 150.391 66.0052 150.451 66.3438 150.57C66.6875 150.685 66.9792 150.867 67.2188 151.117C67.4583 151.367 67.6406 151.693 67.7656 152.094C67.8906 152.49 67.9531 152.969 67.9531 153.531V159H66.0625V153.523C66.0625 153.096 66 152.766 65.875 152.531C65.7552 152.297 65.5833 152.135 65.3594 152.047C65.1354 151.953 64.8672 151.906 64.5547 151.906C64.263 151.906 64.0052 151.961 63.7812 152.07C63.5625 152.174 63.3776 152.323 63.2266 152.516C63.0755 152.703 62.9609 152.919 62.8828 153.164C62.8099 153.409 62.7734 153.674 62.7734 153.961ZM73.6172 159.156C72.9922 159.156 72.4271 159.055 71.9219 158.852C71.4219 158.643 70.9948 158.354 70.6406 157.984C70.2917 157.615 70.0234 157.18 69.8359 156.68C69.6484 156.18 69.5547 155.641 69.5547 155.062V154.75C69.5547 154.089 69.651 153.49 69.8438 152.953C70.0365 152.417 70.3047 151.958 70.6484 151.578C70.9922 151.193 71.3984 150.898 71.8672 150.695C72.3359 150.492 72.8438 150.391 73.3906 150.391C73.9948 150.391 74.5234 150.492 74.9766 150.695C75.4297 150.898 75.8047 151.185 76.1016 151.555C76.4036 151.919 76.6276 152.354 76.7734 152.859C76.9245 153.365 77 153.922 77 154.531V155.336H70.4688V153.984H75.1406V153.836C75.1302 153.497 75.0625 153.18 74.9375 152.883C74.8177 152.586 74.6328 152.346 74.3828 152.164C74.1328 151.982 73.7995 151.891 73.3828 151.891C73.0703 151.891 72.7917 151.958 72.5469 152.094C72.3073 152.224 72.1068 152.414 71.9453 152.664C71.7839 152.914 71.6589 153.216 71.5703 153.57C71.487 153.919 71.4453 154.312 71.4453 154.75V155.062C71.4453 155.432 71.4948 155.776 71.5938 156.094C71.6979 156.406 71.849 156.68 72.0469 156.914C72.2448 157.148 72.4844 157.333 72.7656 157.469C73.0469 157.599 73.3672 157.664 73.7266 157.664C74.1797 157.664 74.5833 157.573 74.9375 157.391C75.2917 157.208 75.599 156.951 75.8594 156.617L76.8516 157.578C76.6693 157.844 76.4323 158.099 76.1406 158.344C75.849 158.583 75.4922 158.779 75.0703 158.93C74.6536 159.081 74.1693 159.156 73.6172 159.156ZM88.625 156.07C88.625 155.836 88.5885 155.628 88.5156 155.445C88.4479 155.263 88.3255 155.096 88.1484 154.945C87.9714 154.794 87.7214 154.648 87.3984 154.508C87.0807 154.362 86.6745 154.214 86.1797 154.062C85.638 153.896 85.138 153.711 84.6797 153.508C84.2266 153.299 83.8307 153.06 83.4922 152.789C83.1536 152.513 82.8906 152.198 82.7031 151.844C82.5156 151.484 82.4219 151.07 82.4219 150.602C82.4219 150.138 82.5182 149.716 82.7109 149.336C82.9089 148.956 83.1875 148.628 83.5469 148.352C83.9115 148.07 84.3411 147.854 84.8359 147.703C85.3307 147.547 85.8776 147.469 86.4766 147.469C87.3203 147.469 88.0469 147.625 88.6562 147.938C89.2708 148.25 89.7422 148.669 90.0703 149.195C90.4036 149.721 90.5703 150.302 90.5703 150.938H88.625C88.625 150.562 88.5443 150.232 88.3828 149.945C88.2266 149.654 87.987 149.424 87.6641 149.258C87.3464 149.091 86.9427 149.008 86.4531 149.008C85.9896 149.008 85.6042 149.078 85.2969 149.219C84.9896 149.359 84.7604 149.549 84.6094 149.789C84.4583 150.029 84.3828 150.299 84.3828 150.602C84.3828 150.815 84.4323 151.01 84.5312 151.188C84.6302 151.359 84.7812 151.521 84.9844 151.672C85.1875 151.818 85.4427 151.956 85.75 152.086C86.0573 152.216 86.4193 152.341 86.8359 152.461C87.4661 152.648 88.0156 152.857 88.4844 153.086C88.9531 153.31 89.3438 153.565 89.6562 153.852C89.9688 154.138 90.2031 154.464 90.3594 154.828C90.5156 155.188 90.5938 155.596 90.5938 156.055C90.5938 156.534 90.4974 156.966 90.3047 157.352C90.112 157.732 89.8359 158.057 89.4766 158.328C89.1224 158.594 88.6953 158.799 88.1953 158.945C87.7005 159.086 87.1484 159.156 86.5391 159.156C85.9922 159.156 85.4531 159.083 84.9219 158.938C84.3958 158.792 83.9167 158.57 83.4844 158.273C83.0521 157.971 82.7083 157.596 82.4531 157.148C82.1979 156.695 82.0703 156.167 82.0703 155.562H84.0312C84.0312 155.932 84.0938 156.247 84.2188 156.508C84.349 156.768 84.5286 156.982 84.7578 157.148C84.987 157.31 85.2526 157.43 85.5547 157.508C85.862 157.586 86.1901 157.625 86.5391 157.625C86.9974 157.625 87.3802 157.56 87.6875 157.43C88 157.299 88.2344 157.117 88.3906 156.883C88.5469 156.648 88.625 156.378 88.625 156.07ZM97.2266 157.008V150.547H99.1172V159H97.3359L97.2266 157.008ZM97.4922 155.25L98.125 155.234C98.125 155.802 98.0625 156.326 97.9375 156.805C97.8125 157.279 97.6198 157.693 97.3594 158.047C97.099 158.396 96.7656 158.669 96.3594 158.867C95.9531 159.06 95.4661 159.156 94.8984 159.156C94.487 159.156 94.1094 159.096 93.7656 158.977C93.4219 158.857 93.125 158.672 92.875 158.422C92.6302 158.172 92.4401 157.846 92.3047 157.445C92.1693 157.044 92.1016 156.565 92.1016 156.008V150.547H93.9844V156.023C93.9844 156.331 94.0208 156.589 94.0938 156.797C94.1667 157 94.2656 157.164 94.3906 157.289C94.5156 157.414 94.6615 157.503 94.8281 157.555C94.9948 157.607 95.1719 157.633 95.3594 157.633C95.8958 157.633 96.3177 157.529 96.625 157.32C96.9375 157.107 97.1589 156.82 97.2891 156.461C97.4245 156.102 97.4922 155.698 97.4922 155.25ZM102.938 152.156V159H101.055V150.547H102.852L102.938 152.156ZM105.523 150.492L105.508 152.242C105.393 152.221 105.268 152.206 105.133 152.195C105.003 152.185 104.872 152.18 104.742 152.18C104.419 152.18 104.135 152.227 103.891 152.32C103.646 152.409 103.44 152.539 103.273 152.711C103.112 152.878 102.987 153.081 102.898 153.32C102.81 153.56 102.758 153.828 102.742 154.125L102.312 154.156C102.312 153.625 102.365 153.133 102.469 152.68C102.573 152.227 102.729 151.828 102.938 151.484C103.151 151.141 103.417 150.872 103.734 150.68C104.057 150.487 104.43 150.391 104.852 150.391C104.966 150.391 105.089 150.401 105.219 150.422C105.354 150.443 105.456 150.466 105.523 150.492ZM108.57 152.352V159H106.688V150.547H108.461L108.57 152.352ZM108.234 154.461L107.625 154.453C107.63 153.854 107.714 153.305 107.875 152.805C108.042 152.305 108.271 151.875 108.562 151.516C108.859 151.156 109.214 150.88 109.625 150.688C110.036 150.49 110.495 150.391 111 150.391C111.406 150.391 111.773 150.448 112.102 150.562C112.435 150.672 112.719 150.852 112.953 151.102C113.193 151.352 113.375 151.677 113.5 152.078C113.625 152.474 113.688 152.961 113.688 153.539V159H111.797V153.531C111.797 153.125 111.737 152.805 111.617 152.57C111.503 152.331 111.333 152.161 111.109 152.062C110.891 151.958 110.617 151.906 110.289 151.906C109.966 151.906 109.677 151.974 109.422 152.109C109.167 152.245 108.951 152.43 108.773 152.664C108.602 152.898 108.469 153.169 108.375 153.477C108.281 153.784 108.234 154.112 108.234 154.461ZM120.375 157.305V153.273C120.375 152.971 120.32 152.711 120.211 152.492C120.102 152.273 119.935 152.104 119.711 151.984C119.492 151.865 119.216 151.805 118.883 151.805C118.576 151.805 118.31 151.857 118.086 151.961C117.862 152.065 117.688 152.206 117.562 152.383C117.438 152.56 117.375 152.76 117.375 152.984H115.5C115.5 152.651 115.581 152.328 115.742 152.016C115.904 151.703 116.138 151.424 116.445 151.18C116.753 150.935 117.12 150.742 117.547 150.602C117.974 150.461 118.453 150.391 118.984 150.391C119.62 150.391 120.182 150.497 120.672 150.711C121.167 150.924 121.555 151.247 121.836 151.68C122.122 152.107 122.266 152.643 122.266 153.289V157.047C122.266 157.432 122.292 157.779 122.344 158.086C122.401 158.388 122.482 158.651 122.586 158.875V159H120.656C120.568 158.797 120.497 158.539 120.445 158.227C120.398 157.909 120.375 157.602 120.375 157.305ZM120.648 153.859L120.664 155.023H119.312C118.964 155.023 118.656 155.057 118.391 155.125C118.125 155.188 117.904 155.281 117.727 155.406C117.549 155.531 117.417 155.682 117.328 155.859C117.24 156.036 117.195 156.237 117.195 156.461C117.195 156.685 117.247 156.891 117.352 157.078C117.456 157.26 117.607 157.404 117.805 157.508C118.008 157.612 118.253 157.664 118.539 157.664C118.924 157.664 119.26 157.586 119.547 157.43C119.839 157.268 120.068 157.073 120.234 156.844C120.401 156.609 120.49 156.388 120.5 156.18L121.109 157.016C121.047 157.229 120.94 157.458 120.789 157.703C120.638 157.948 120.44 158.182 120.195 158.406C119.956 158.625 119.667 158.805 119.328 158.945C118.995 159.086 118.609 159.156 118.172 159.156C117.62 159.156 117.128 159.047 116.695 158.828C116.263 158.604 115.924 158.305 115.68 157.93C115.435 157.549 115.312 157.12 115.312 156.641C115.312 156.193 115.396 155.797 115.562 155.453C115.734 155.104 115.984 154.812 116.312 154.578C116.646 154.344 117.052 154.167 117.531 154.047C118.01 153.922 118.557 153.859 119.172 153.859H120.648ZM126.117 152.266V159H124.234V150.547H126.008L126.117 152.266ZM125.812 154.461L125.172 154.453C125.172 153.87 125.245 153.331 125.391 152.836C125.536 152.341 125.75 151.911 126.031 151.547C126.312 151.177 126.661 150.893 127.078 150.695C127.5 150.492 127.987 150.391 128.539 150.391C128.924 150.391 129.276 150.448 129.594 150.562C129.917 150.672 130.195 150.846 130.43 151.086C130.669 151.326 130.852 151.633 130.977 152.008C131.107 152.383 131.172 152.836 131.172 153.367V159H129.289V153.531C129.289 153.12 129.227 152.797 129.102 152.562C128.982 152.328 128.807 152.161 128.578 152.062C128.354 151.958 128.086 151.906 127.773 151.906C127.419 151.906 127.117 151.974 126.867 152.109C126.622 152.245 126.422 152.43 126.266 152.664C126.109 152.898 125.995 153.169 125.922 153.477C125.849 153.784 125.812 154.112 125.812 154.461ZM131.055 153.961L130.172 154.156C130.172 153.646 130.242 153.164 130.383 152.711C130.529 152.253 130.74 151.852 131.016 151.508C131.297 151.159 131.643 150.885 132.055 150.688C132.466 150.49 132.938 150.391 133.469 150.391C133.901 150.391 134.286 150.451 134.625 150.57C134.969 150.685 135.26 150.867 135.5 151.117C135.74 151.367 135.922 151.693 136.047 152.094C136.172 152.49 136.234 152.969 136.234 153.531V159H134.344V153.523C134.344 153.096 134.281 152.766 134.156 152.531C134.036 152.297 133.865 152.135 133.641 152.047C133.417 151.953 133.148 151.906 132.836 151.906C132.544 151.906 132.286 151.961 132.062 152.07C131.844 152.174 131.659 152.323 131.508 152.516C131.357 152.703 131.242 152.919 131.164 153.164C131.091 153.409 131.055 153.674 131.055 153.961ZM141.898 159.156C141.273 159.156 140.708 159.055 140.203 158.852C139.703 158.643 139.276 158.354 138.922 157.984C138.573 157.615 138.305 157.18 138.117 156.68C137.93 156.18 137.836 155.641 137.836 155.062V154.75C137.836 154.089 137.932 153.49 138.125 152.953C138.318 152.417 138.586 151.958 138.93 151.578C139.273 151.193 139.68 150.898 140.148 150.695C140.617 150.492 141.125 150.391 141.672 150.391C142.276 150.391 142.805 150.492 143.258 150.695C143.711 150.898 144.086 151.185 144.383 151.555C144.685 151.919 144.909 152.354 145.055 152.859C145.206 153.365 145.281 153.922 145.281 154.531V155.336H138.75V153.984H143.422V153.836C143.411 153.497 143.344 153.18 143.219 152.883C143.099 152.586 142.914 152.346 142.664 152.164C142.414 151.982 142.081 151.891 141.664 151.891C141.352 151.891 141.073 151.958 140.828 152.094C140.589 152.224 140.388 152.414 140.227 152.664C140.065 152.914 139.94 153.216 139.852 153.57C139.768 153.919 139.727 154.312 139.727 154.75V155.062C139.727 155.432 139.776 155.776 139.875 156.094C139.979 156.406 140.13 156.68 140.328 156.914C140.526 157.148 140.766 157.333 141.047 157.469C141.328 157.599 141.648 157.664 142.008 157.664C142.461 157.664 142.865 157.573 143.219 157.391C143.573 157.208 143.88 156.951 144.141 156.617L145.133 157.578C144.951 157.844 144.714 158.099 144.422 158.344C144.13 158.583 143.773 158.779 143.352 158.93C142.935 159.081 142.451 159.156 141.898 159.156Z" fill="#516778"/>
<path d="M36.7969 176.625H38.2578L41.9844 185.898L45.7031 176.625H47.1719L42.5469 188H41.4062L36.7969 176.625ZM36.3203 176.625H37.6094L37.8203 183.562V188H36.3203V176.625ZM46.3516 176.625H47.6406V188H46.1406V183.562L46.3516 176.625ZM50.7656 176.625H52.2266L55.9531 185.898L59.6719 176.625H61.1406L56.5156 188H55.375L50.7656 176.625ZM50.2891 176.625H51.5781L51.7891 183.562V188H50.2891V176.625ZM60.3203 176.625H61.6094V188H60.1094V183.562L60.3203 176.625ZM73.0391 176.625L68.2969 188.977H67.0547L71.8047 176.625H73.0391ZM79.3281 176.625L82.2812 182.336L85.2422 176.625H86.9531L83.0312 183.75V188H81.5234V183.75L77.6016 176.625H79.3281ZM89.0781 176.625L92.0312 182.336L94.9922 176.625H96.7031L92.7812 183.75V188H91.2734V183.75L87.3516 176.625H89.0781ZM98.8281 176.625L101.781 182.336L104.742 176.625H106.453L102.531 183.75V188H101.023V183.75L97.1016 176.625H98.8281ZM108.578 176.625L111.531 182.336L114.492 176.625H116.203L112.281 183.75V188H110.773V183.75L106.852 176.625H108.578Z" fill="#516778"/>
<rect x="268" y="142" width="76" height="52" rx="11" fill="white" stroke="#EFEFEF" stroke-width="2"/>
<path fill-rule="evenodd" clip-rule="evenodd" d="M306.001 180.302C303.168 182.77 299.494 184.259 295.479 184.259C286.52 184.259 279.258 176.842 279.258 167.692C279.258 158.542 286.52 151.125 295.479 151.125C299.494 151.125 303.168 152.615 306.001 155.083C308.833 152.615 312.507 151.125 316.522 151.125C325.481 151.125 332.744 158.542 332.744 167.692C332.744 176.842 325.481 184.259 316.522 184.259C312.507 184.259 308.833 182.77 306.001 180.302Z" fill="#ED0006"/>
<path fill-rule="evenodd" clip-rule="evenodd" d="M306 180.302C309.488 177.263 311.699 172.741 311.699 167.692C311.699 162.643 309.488 158.121 306 155.083C308.833 152.615 312.507 151.125 316.522 151.125C325.48 151.125 332.743 158.542 332.743 167.692C332.743 176.842 325.48 184.259 316.522 184.259C312.507 184.259 308.833 182.77 306 180.302Z" fill="#F9A000"/>
<path fill-rule="evenodd" clip-rule="evenodd" d="M306 180.301C309.488 177.262 311.699 172.741 311.699 167.692C311.699 162.642 309.488 158.121 306 155.082C302.512 158.121 300.301 162.642 300.301 167.692C300.301 172.741 302.512 177.262 306 180.301Z" fill="#FF5E00"/>
<g opacity="0.3">
<path fill-rule="evenodd" clip-rule="evenodd" d="M297 65.3038C297 69.5607 300.46 72.9998 304.732 72.9998H312.925V64.3902H297V65.3038Z" fill="#878773"/>
<path fill-rule="evenodd" clip-rule="evenodd" d="M297 61.6546H312.92V52.8681H297V61.6546Z" fill="#878773"/>
<path fill-rule="evenodd" clip-rule="evenodd" d="M297 37.7008V38.6191H312.925V30H304.732C300.46 30 297 33.4486 297 37.7008Z" fill="#878773"/>
<path fill-rule="evenodd" clip-rule="evenodd" d="M337.267 30H315.668V73H326.653V38.6191H344.999V37.7008C344.999 33.4486 341.535 30 337.267 30Z" fill="#878773"/>
<path fill-rule="evenodd" clip-rule="evenodd" d="M297 50.1362H312.92V41.3496H297V50.1362Z" fill="#878773"/>
<path fill-rule="evenodd" clip-rule="evenodd" d="M329.396 50.1361H344.999V41.3496H329.396V50.1361Z" fill="#878773"/>
<path fill-rule="evenodd" clip-rule="evenodd" d="M329.396 61.6547H344.999V52.8682H329.396V61.6547Z" fill="#878773"/>
<path fill-rule="evenodd" clip-rule="evenodd" d="M329.396 72.9998H337.267C341.534 72.9998 344.999 69.5608 344.999 65.3038V64.3903H329.396V72.9998Z" fill="#878773"/>
</g>
<g clip-path="url(#clip0_251_9337)">
<path d="M89.3567 32H51.1484V71H89.3567V32Z" fill="white"/>
<path d="M108.462 51.5459L89.3574 32V71.0459L108.462 51.5459Z" fill="#DB0011"/>
<path d="M70.2526 51.5459L89.3567 32H51.1484L70.2526 51.5459Z" fill="#DB0011"/>
<path d="M32 51.5459L51.1491 71.0459V32L32 51.5459Z" fill="#DB0011"/>
<path d="M70.2526 51.5459L51.1484 71.0459H89.3567L70.2526 51.5459Z" fill="#DB0011"/>
<path d="M125.227 52.6929H118.305V59.6671H114.844V43.3329H118.305V50.0318H125.227V43.3329H128.689V59.6671H125.227V52.6929Z" fill="black"/>
<path d="M137.051 59.9882C133.59 59.9882 130.758 58.5659 130.713 54.6659H134.174C134.219 56.4094 135.208 57.4647 137.096 57.4647C138.489 57.4647 140.108 56.7306 140.108 55.1247C140.108 53.84 139.029 53.4729 137.231 52.9224L136.062 52.6012C133.545 51.8671 131.028 50.8576 131.028 47.9212C131.028 44.2965 134.354 43.0576 137.366 43.0576C140.467 43.0576 143.164 44.1588 143.209 47.7835H139.748C139.613 46.3153 138.759 45.4435 137.141 45.4435C135.837 45.4435 134.579 46.1318 134.579 47.6C134.579 48.7929 135.657 49.16 137.905 49.8941L139.254 50.3071C141.996 51.1788 143.749 52.1424 143.749 54.8953C143.704 58.5659 140.198 59.9882 137.051 59.9882Z" fill="black"/>
<path d="M145.682 43.3788H151.256C152.289 43.3329 153.368 43.3788 154.402 43.5624C156.335 44.0212 157.818 45.3059 157.818 47.5082C157.818 49.6188 156.515 50.6741 154.627 51.1788C156.785 51.5918 158.403 52.6929 158.403 55.1247C158.403 58.8412 154.807 59.6671 152.02 59.6671H145.727L145.682 43.3788ZM151.256 50.1694C152.784 50.1694 154.357 49.8482 154.357 47.9671C154.357 46.2694 152.919 45.8106 151.48 45.8106H149.053V50.1694H151.256V50.1694ZM151.57 57.2353C153.188 57.2353 154.762 56.8682 154.762 54.8494C154.762 52.8306 153.413 52.4635 151.75 52.4635H149.008V57.2353H151.57Z" fill="black"/>
<path d="M167.392 59.9882C162.222 59.9882 159.93 56.6388 159.93 51.6376C159.93 46.6365 162.492 43.0118 167.571 43.0118C170.763 43.0118 173.864 44.48 173.954 48.1506H170.358C170.178 46.4988 169.1 45.6729 167.571 45.6729C164.425 45.6729 163.481 49.1141 163.481 51.7294C163.481 54.3447 164.425 57.3729 167.436 57.3729C169.01 57.3729 170.178 56.5012 170.403 54.8494H173.999C173.64 58.6118 170.718 59.9882 167.392 59.9882Z" fill="black"/>
</g>
<rect x="1" y="1" width="378" height="218" rx="14" stroke="#EDEDED" stroke-width="2"/>
<defs>
<clipPath id="clip0_251_9337">
<rect width="142" height="39" fill="white" transform="translate(32 32)"/>
</clipPath>
</defs>
</svg>
