<svg width="22" height="14" viewBox="0 0 22 14" fill="none" xmlns="http://www.w3.org/2000/svg">
<path fill-rule="evenodd" clip-rule="evenodd" d="M11.0007 12.0118C9.83866 13.0172 8.33126 13.6242 6.6841 13.6242C3.00875 13.6242 0.0292969 10.6023 0.0292969 6.87459C0.0292969 3.14689 3.00875 0.125 6.6841 0.125C8.33126 0.125 9.83866 0.731957 11.0007 1.73739C12.1628 0.731957 13.6702 0.125 15.3174 0.125C18.9927 0.125 21.9722 3.14689 21.9722 6.87459C21.9722 10.6023 18.9927 13.6242 15.3174 13.6242C13.6702 13.6242 12.1628 13.0172 11.0007 12.0118Z" fill="#ED0006"/>
<path fill-rule="evenodd" clip-rule="evenodd" d="M11 12.0118C12.4309 10.7738 13.3382 8.93165 13.3382 6.87459C13.3382 4.81752 12.4309 2.97538 11 1.73739C12.1621 0.731957 13.6695 0.125 15.3166 0.125C18.992 0.125 21.9714 3.14689 21.9714 6.87459C21.9714 10.6023 18.992 13.6242 15.3166 13.6242C13.6695 13.6242 12.1621 13.0172 11 12.0118Z" fill="#F9A000"/>
<path fill-rule="evenodd" clip-rule="evenodd" d="M11.0003 12.0118C12.4311 10.7738 13.3384 8.93167 13.3384 6.87462C13.3384 4.81757 12.4311 2.97544 11.0003 1.73745C9.5694 2.97544 8.6621 4.81757 8.6621 6.87462C8.6621 8.93167 9.5694 10.7738 11.0003 12.0118Z" fill="#FF5E00"/>
</svg>
