<svg width="15" height="15" viewBox="0 0 15 15" fill="none" xmlns="http://www.w3.org/2000/svg">
<path fill-rule="evenodd" clip-rule="evenodd" d="M3.68711 0.720179C3.93023 0.68899 4.17686 0.738564 4.38905 0.861275C4.60029 0.983438 4.76573 1.17134 4.86017 1.39628L6.27141 4.68919C6.27161 4.68966 6.27182 4.69013 6.27202 4.6906C6.34508 4.85946 6.37562 5.04366 6.36095 5.22707C6.34623 5.411 6.28651 5.58848 6.18703 5.74388L6.18333 5.74966L5.01131 7.53218C5.53437 8.611 6.40677 9.4813 7.48683 10.0018L7.48911 10.0002L9.24554 8.82692C9.40141 8.72167 9.58133 8.65744 9.76863 8.64019C9.95594 8.62294 10.1446 8.65323 10.317 8.72824C10.3177 8.72854 10.3184 8.72885 10.3191 8.72916L13.604 10.1399C13.8288 10.2344 14.0166 10.3998 14.1387 10.6109C14.2614 10.8231 14.311 11.0698 14.2798 11.3129C14.1581 12.2626 13.6946 13.1354 12.9759 13.7681C12.2572 14.4007 11.3326 14.7498 10.3751 14.75C7.68981 14.75 5.11435 13.6833 3.21554 11.7844C1.31674 9.88564 0.25 7.31031 0.25 4.62499C0.250216 3.66752 0.599301 2.74281 1.23194 2.02411C1.86453 1.30546 2.73747 0.841893 3.68711 0.720179ZM4.50391 7.77499L3.99652 8.01781C3.91345 7.84423 3.87629 7.65225 3.8886 7.46021C3.90091 7.26817 3.96228 7.08249 4.06683 6.92094L4.06904 6.91752L5.23951 5.13731L5.23844 5.13486L3.82517 1.8372C3.14879 1.92512 2.52713 2.25537 2.07638 2.76744C1.62453 3.28076 1.37518 3.94113 1.375 4.62499M4.50391 7.77499L3.99764 8.02015C4.63186 9.32986 5.69091 10.3862 7.00224 11.017L7.00537 11.0185C7.18193 11.1021 7.37722 11.1383 7.57202 11.1235C7.76631 11.1088 7.95343 11.0438 8.11506 10.935C8.11547 10.9347 8.11589 10.9344 8.11631 10.9342L9.87183 9.76148L13.1624 11.1747L13.1633 11.1751C13.0753 11.8514 12.7446 12.4729 12.2326 12.9236C11.7192 13.3755 11.0589 13.6248 10.375 13.625M1.375 4.62499C1.37503 7.0119 2.32324 9.30116 4.01104 10.989C5.69884 12.6768 7.9881 13.625 10.375 13.625" fill="#BBBBBB"/>
</svg>
