<svg width="32" height="26" viewBox="0 0 32 26" fill="none" xmlns="http://www.w3.org/2000/svg">
<path d="M16.788 10.911C16.788 11.867 16.205 12.417 15.177 12.417H13.827V9.406H15.183C16.205 9.406 16.788 9.95 16.788 10.911ZM19.427 14.389C19.427 14.85 19.827 15.15 20.455 15.15C21.255 15.15 21.855 14.645 21.855 13.933V13.505L20.549 13.588C19.81 13.638 19.427 13.911 19.427 14.389ZM31.999 3.167V22.723C31.9988 23.4303 31.7177 24.1085 31.2176 24.6086C30.7175 25.1087 30.0393 25.3897 29.332 25.39H2.66505C1.9578 25.3897 1.27959 25.1087 0.779486 24.6086C0.279384 24.1085 -0.00168809 23.4303 -0.00195312 22.723V3.167C-0.00168809 2.45975 0.279384 1.78154 0.779486 1.28144C1.27959 0.781337 1.9578 0.500265 2.66505 0.5H29.332C30.0393 0.500265 30.7175 0.781337 31.2176 1.28144C31.7177 1.78154 31.9988 2.45975 31.999 3.167ZM7.09905 9.733C7.56605 9.772 8.03205 9.5 8.32705 9.155C8.61605 8.799 8.80505 8.322 8.75505 7.838C8.34405 7.855 7.83305 8.11 7.53805 8.466C7.27105 8.772 7.04405 9.266 7.09905 9.733ZM10.466 13.872C10.455 13.861 9.37705 13.45 9.36605 12.205C9.35505 11.166 10.216 10.666 10.255 10.638C9.76605 9.916 9.01005 9.838 8.74905 9.821C8.07105 9.782 7.49305 10.204 7.17105 10.204C6.84305 10.204 6.35405 9.837 5.82105 9.849C5.47306 9.85825 5.13357 9.95848 4.83636 10.1397C4.53916 10.3209 4.2946 10.5769 4.12705 10.882C3.39905 12.138 3.93805 13.993 4.64405 15.015C4.98805 15.52 5.40505 16.076 5.95005 16.054C6.46605 16.032 6.67205 15.721 7.29405 15.721C7.92205 15.721 8.10005 16.054 8.64405 16.049C9.21105 16.038 9.56105 15.544 9.91105 15.038C10.294 14.46 10.455 13.905 10.467 13.871L10.466 13.872ZM17.988 10.906C17.988 9.428 16.96 8.417 15.493 8.417H12.649V15.995H13.827V13.406H15.455C16.944 13.406 17.988 12.384 17.988 10.906ZM22.988 12.222C22.988 11.128 22.11 10.422 20.766 10.422C19.516 10.422 18.594 11.139 18.56 12.116H19.621C19.71 11.649 20.143 11.344 20.732 11.344C21.454 11.344 21.854 11.677 21.854 12.3V12.717L20.387 12.806C19.02 12.889 18.282 13.451 18.282 14.423C18.282 15.406 19.043 16.056 20.137 16.056C20.876 16.056 21.559 15.684 21.87 15.089H21.892V16H22.981V12.222H22.988ZM28.666 10.494H27.472L26.089 14.972H26.067L24.684 10.494H23.445L25.439 16.011L25.334 16.344C25.156 16.911 24.862 17.133 24.34 17.133C24.2249 17.1309 24.1098 17.1252 23.995 17.116V18.027C24.062 18.049 24.356 18.055 24.445 18.055C25.595 18.055 26.134 17.616 26.606 16.288L28.666 10.494Z" fill="black"/>
</svg>
